{
	"asset":{
		"generator":"Khronos glTF Blender I/O v3.6.27",
		"version":"2.0"
	},
	"scene":0,
	"scenes":[
		{
			"name":"Scene",
			"nodes":[
				0
			]
		}
	],
	"nodes":[
		{
			"mesh":0,
			"name":"Cube"
		}
	],
	"meshes":[
		{
			"name":"Cube.001",
			"primitives":[
				{
					"attributes":{
						"POSITION":0,
						"NORMAL":1,
						"TEXCOORD_0":2
					},
					"indices":3
				}
			]
		}
	],
	"accessors":[
		{
			"bufferView":0,
			"componentType":5126,
			"count":2550,
			"max":[
				7.2386651039123535,
				1.9917025566101074,
				12.264615058898926
			],
			"min":[
				-7.2386651039123535,
				-1.9917025566101074,
				-12.264615058898926
			],
			"type":"VEC3"
		},
		{
			"bufferView":1,
			"componentType":5126,
			"count":2550,
			"type":"VEC3"
		},
		{
			"bufferView":2,
			"componentType":5126,
			"count":2550,
			"type":"VEC2"
		},
		{
			"bufferView":3,
			"componentType":5123,
			"count":4356,
			"type":"SCALAR"
		}
	],
	"bufferViews":[
		{
			"buffer":0,
			"byteLength":30600,
			"byteOffset":0,
			"target":34962
		},
		{
			"buffer":0,
			"byteLength":30600,
			"byteOffset":30600,
			"target":34962
		},
		{
			"buffer":0,
			"byteLength":20400,
			"byteOffset":61200,
			"target":34962
		},
		{
			"buffer":0,
			"byteLength":8712,
			"byteOffset":81600,
			"target":34963
		}
	],
	"buffers":[
		{
			"byteLength":90312,
			"uri":"data:application/octet-stream;base64,"
		}
	]
}
